<?xml version="1.0" encoding="UTF-8" standalone="no"?><!DOCTYPE svg PUBLIC "-//W3C//DTD SVG 1.1//EN" "http://www.w3.org/Graphics/SVG/1.1/DTD/svg11.dtd"><svg width="100%" height="100%" viewBox="0 0 6970 6171" version="1.1" xmlns="http://www.w3.org/2000/svg" xmlns:xlink="http://www.w3.org/1999/xlink" xml:space="preserve" xmlns:serif="http://www.serif.com/" style="fill-rule:evenodd;clip-rule:evenodd;stroke-linejoin:round;stroke-miterlimit:2;"><rect id="Página-1" serif:id="Página 1" x="0" y="0" width="6969.208" height="6170.042" style="fill:none;"/><g id="Capa-1" serif:id="Capa 1"><path d="M2209.581,2797.588l413.933,0c11.783,0 60.237,-21.796 73.517,-29.233c128.975,-72.246 143.221,-287.7 -38.604,-295.283c-5.158,-0.217 -9.096,3.954 -10.742,3.954l-344.442,0l256.796,145.067l-350.458,175.496Zm571.046,-580.646c176.567,15.583 351.7,127.812 365.496,317.637c23.617,324.942 -287.692,519.542 -577.058,541.171l-776.433,0.004c73.925,-95.796 153.312,-186.558 236.133,-274.675c121.713,-55.308 249.592,-96.075 372.958,-147.142c8.962,-3.713 16.454,3.688 13.267,-13.592l-888.217,-24.15l960.746,-12.217l-432.067,-211.596c-8.367,3.421 -0.488,11.458 1.783,16.358c13.233,28.575 37.05,54.292 43.575,86.425l-371.629,0l-166.179,-278.225l1217.625,0Z" style="fill:#20509e;fill-rule:nonzero;"/><path d="M4221.831,3075.814l133.796,-858.033c86.087,4.558 183.579,-8.929 268.337,-1.125c10.312,0.95 20.321,0.471 29.158,7.104l502.379,483.142l45.262,-489.958l350.479,0l-60.425,858.871l-323.292,0l-519.621,-447.642l-63.508,447.642l-362.567,0Z" style="fill:#20509e;fill-rule:nonzero;"/><path d="M3122.043,3075.814l147.833,-859.275l341.646,3.3l-84.583,583.762l636.629,-5.146l7.621,11.625l-52.083,265.733l-997.062,0Z" style="fill:#20509e;fill-rule:nonzero;"/><path d="M6028.588,3589.995c1.438,10.529 -13.704,5.692 -21.05,5.979c-1508.192,59.046 -3022.25,5.775 -4532.446,24.483l-534.558,-27.508c-0.058,-13.646 131.821,-8.096 148.358,-8.821c1450.679,-63.717 2909.638,-2.875 4362.896,-24.692l576.8,30.558Z" style="fill:#f08342;fill-rule:nonzero;"/><path d="M1417.975,3075.814l329.333,-326.613l271.925,0c2.467,0 10.567,-15.575 9.017,2.946l-293.029,323.667l-317.246,0Z" style="fill:#20509e;fill-rule:nonzero;"/><path d="M2855.355,3221.765l43.179,156.425l47.588,-153.617l36.667,-3.3c10.838,44.133 20.404,99.8 36.933,141.433c2.496,6.288 2.175,14.608 11.621,15.525l36.567,-156.992l35.979,-0.229l-61.133,210.887l-32.671,-5.129l-48.175,-157.467l-45.908,162.75l-35.083,0l-54.979,-211.05l29.417,0.762Z" style="fill:#f08342;fill-rule:nonzero;"/><path d="M2481.475,3305.684c123.358,17.633 114.787,-84.133 0.004,-72.638l-0.004,72.638Zm69.525,-96.804c55.525,9.225 82.879,77.888 33.042,111.688c-9.921,6.725 -34.137,6.725 -29.942,18.242l72.433,93.8c-15,-1.192 -34.675,3.838 -48.4,-2.908c-27.608,-13.571 -51.567,-108.008 -96.625,-93.808l0,96.775l-42.3,0l0,-223.787c34.221,3.963 79.167,-5.421 111.792,0" style="fill:#f08342;fill-rule:nonzero;"/><path d="M934.582,3311.639l87.654,-11.971l477.579,-28.771c13.35,2.379 14.162,72.825 -0.733,76.392l-564.5,-35.65Z" style="fill:#f08342;fill-rule:nonzero;"/><path d="M6034.638,3305.714l-75.567,11.971l-488.933,29.604c-14.921,-3.6 -14.058,-74.05 -0.733,-76.392l565.233,34.817Z" style="fill:#f08342;fill-rule:nonzero;"/><path d="M4699.211,3220.975c8.458,0.121 17.708,-1.458 25.913,1.275c15.562,5.179 87.883,114.325 105.021,137.083c7.033,9.342 5.3,22.2 17.054,18.929c8.546,-1.008 -2.958,-7.7 -2.958,-9.1l0,-148.188l36.254,0l0,202.621c0,8.796 -28.292,13.35 -36.263,6.029l-114.808,-160.262l0,163.304l-30.212,0l0,-211.692Z" style="fill:#f08342;fill-rule:nonzero;"/><path d="M2123.692,3240.383c-100.608,8.704 -91.433,178.383 22.025,161.679c92.758,-13.663 81.717,-170.654 -22.025,-161.679m-24.529,-24.083c164.533,-34.15 190.1,192.463 51.583,214.917c-148.975,24.154 -171.104,-190.108 -51.583,-214.917" style="fill:#f08342;fill-rule:nonzero;"/><path d="M5237.047,3341.915l-57.671,-5.779l0,-18.625l82.2,-3.171c14.992,56.4 13.283,98.358 -49.842,114.175c-143.65,35.996 -196.083,-156.512 -83.742,-204.771c36.283,-15.588 94.704,-13.463 124.262,15.246c16.208,15.742 -0.392,31.821 -11.358,29.871c-4.904,-0.875 -14.604,-14.679 -23.796,-18.883c-136.188,-62.275 -168.929,177.929 -13.646,152.071c35.25,-5.871 36.387,-29.333 33.592,-60.133" style="fill:#f08342;fill-rule:nonzero;"/><path d="M4107.018,3402.427c152.496,24.412 152.667,-175.167 0,-157.258l0,157.258Zm-30.213,30.242l0,-211.692l93.662,0c10.121,0 52.383,26.642 60.192,36.525c38.075,48.192 25.354,127.708 -27.392,159.613c-3.921,2.371 -36.75,15.554 -38.842,15.554l-87.621,0Z" style="fill:#f08342;fill-rule:nonzero;"/><path d="M3732.369,3317.771l61.008,-14.517c22.346,-47.504 -19.892,-63.608 -61.042,-58.112l0.033,72.629Zm57.404,-96.796c51.037,11.079 57.858,108.5 -3.017,115.008l54.35,96.654c-10.046,-1.458 -27.004,3.433 -35.025,-1.225c-6.537,-3.8 -43.733,-75.192 -50.529,-88.421l-23.188,-1.05l0,90.725l-30.213,0l0,-211.692c25.679,3.717 64.021,-5.125 87.621,0" style="fill:#f08342;fill-rule:nonzero;"/><path d="M3436.266,3347.931l-33.204,-84.588c-8.662,10.233 -37.812,80.192 -33.242,84.617l66.446,-0.029Zm-18.871,-126.158l85.342,210.837l-36.512,-2.712l-17.192,-48.071l-87.329,-2.621c-25.012,20.992 -10.85,63.346 -58.35,53.429l79.037,-202.075c6.875,-12.208 22.738,-11.442 35.004,-8.787" style="fill:#f08342;fill-rule:nonzero;"/><path d="M2378.847,3904.406l60.167,-118.117c9.629,-5.846 20.071,-3.825 23.417,7.213c3.646,12.021 6.079,110.792 16.054,111.004l52.35,-119.983l23.162,-1.008c-8.479,23.3 -61.4,159.787 -72.45,166.329c-7.629,4.512 -15.979,3.079 -24.188,3.029l-15.1,-127.029c-24.396,35.996 -33.383,82.887 -55.667,119.446c-6.342,10.408 -20.375,12.529 -26.583,3.979c-4.421,-6.092 -19.225,-131.608 -19.625,-149.133c-0.162,-7.104 -5.479,-10.162 5.221,-16.6l20.062,10.042l13.179,110.829Z" style="fill:#20509e;fill-rule:nonzero;"/><path d="M4094.943,3904.38c13.679,2.588 9.662,-0.583 13.496,-7.667c8.558,-15.817 45.358,-134.583 71.033,-113.246l21.208,121.037c6.233,-0.025 38.488,-103.058 48.317,-115.004c7.275,-8.838 17.688,-5.917 27.188,-5.992c-11.025,21.9 -62.458,160.5 -72.383,166.392c-7.55,4.483 -16.062,3.05 -24.208,2.942c-6.704,-36.879 -7.558,-74.829 -12.196,-111.954c-1.042,-8.346 -3.154,-17.946 -11.95,-9.013c-13.267,33.233 -29.021,83.75 -46.642,113.458c-8.083,13.633 -23.867,10.833 -31.162,-2.421c1.033,-46.412 -15.208,-96.096 -16.421,-141.396c-0.675,-25.279 22.167,-23.104 26.713,-8.013l7.008,110.875Z" style="fill:#20509e;fill-rule:nonzero;"/><path d="M1822.842,3220.975l0.029,24.167l-80.763,0.871c-17.987,5.892 -7.25,50.004 -9.942,65.721l74.712,0.821l9.921,29.388l-84.6,0l0,90.725l-30.213,0l0,-211.692l120.854,0Z" style="fill:#f08342;fill-rule:nonzero;"/><path d="M4607.087,3863.604c-28.375,-28.879 -87.996,31.308 -52.637,61.738c36.979,31.829 79.512,-34.388 52.637,-61.738m25.625,89.254c-21.312,8.867 -25.492,-12.408 -27.212,-12.354c-8.446,0.267 -14.258,10.217 -24.3,12.142c-94.863,18.188 -71.467,-131.108 12.021,-114.679c11.708,2.308 15.425,13.633 27.404,12.012c0.567,-11.312 2.142,-70.483 21.087,-66.471c10.042,2.125 8.983,18.058 8.688,26.254c-1.637,45.467 -23.775,95.842 -17.688,143.096" style="fill:#20509e;fill-rule:nonzero;"/><path d="M2851.599,3927.139c27.254,27.679 82.554,-29.142 53.021,-62.112c-37.1,-30.792 -80.325,34.383 -53.021,62.112m14.879,-87.933c96.079,-22.183 85.65,101.35 22.638,113.283c-94.708,17.942 -82.875,-99.379 -22.638,-113.283" style="fill:#20509e;fill-rule:nonzero;"/><path d="M4341.13,3921.065c15.658,-16.975 16.417,-53.942 -8.775,-64.2c-35.221,-6.229 -63.775,37.825 -44.504,67.717c9.992,15.504 43.412,7.179 53.279,-3.517m-36.458,-81.854c95.45,-21.838 89.471,100.567 22.642,113.296c-94.158,17.933 -81.046,-99.933 -22.642,-113.296" style="fill:#20509e;fill-rule:nonzero;"/><path d="M3703.633,3927.139c27.254,27.679 82.554,-29.142 53.021,-62.113c-37.1,-30.792 -80.325,34.383 -53.021,62.113m75.262,-75.383c49.446,61.417 -64.262,146.108 -101.204,80.208c-36.863,-65.754 64.021,-126.392 101.204,-80.208" style="fill:#20509e;fill-rule:nonzero;"/><path d="M2566.107,3886.237c12.796,3.188 64.783,-0.679 60.396,-21.017c-4.667,-21.617 -60.513,-4.696 -60.396,21.017m-6.042,18.267c13.9,39.125 36.942,34.671 69.167,18.158l9.371,17.983c-64.804,38.425 -132.25,-7.575 -84.592,-75.525c63.012,-89.838 174.096,49.05 6.054,39.383" style="fill:#20509e;fill-rule:nonzero;"/><path d="M3696.078,3783.507c6.004,5.154 -62.871,85.692 -67.783,98.421c-7.792,20.175 -8.475,49.017 -10.912,70.808l-23.971,0.108c-2.654,-26.037 9.35,-48.817 5.688,-75.192c-2.113,-15.192 -41.192,-89.458 -35.908,-94.142c45.3,-7.479 31.829,49.713 57.383,72.425c9.112,-0.329 44.383,-88.613 75.504,-72.429" style="fill:#20509e;fill-rule:nonzero;"/><path d="M3230.842,3886.265c10.733,2.513 64.338,-2.058 60.367,-21.046c-14.283,-27.958 -72.608,10.246 -60.367,21.046m70.883,4.537c-15.188,16.196 -56.108,14.142 -76.925,13.671c3.896,43.592 43.196,30.042 72.45,18.142c3.446,17.263 -7.225,25.325 -22.429,28.854c-109.887,25.492 -87.658,-126.625 6.846,-113.267c29.242,4.133 38.279,33.167 20.058,52.6" style="fill:#20509e;fill-rule:nonzero;"/><path d="M4457.5,3432.669l0,-211.692l34.738,8.804l0,194.079l-34.738,8.808Z" style="fill:#f08342;fill-rule:nonzero;"/><path d="M3114.519,3839.904c1.896,1.058 1.008,10.796 4.375,10.146c11.304,-2.188 46.037,-29.633 60.554,-0.087c6.846,13.925 -1.758,99.592 -12.142,102.812c-38.071,11.808 -3.15,-68.488 -8.654,-86.633c-14.887,-15.558 -34.371,-8.283 -44.067,9.688c-15.7,29.104 1.592,87.196 -40.867,76.958l18.371,-114.717c7.608,-0.083 15.258,-2.171 22.429,1.833" style="fill:#20509e;fill-rule:nonzero;"/><path d="M2987.716,3839.858l4.45,10.375c96.892,-45.438 62.833,44.408 57.204,102.508l-23.979,0.079l10.592,-80.95c-43.183,-50.233 -60.496,47.467 -59.125,80.871l-23.983,0.079l13.062,-104.829l8.108,-10.029l13.671,1.896Z" style="fill:#20509e;fill-rule:nonzero;"/><path d="M3890.169,3838.638l23.45,-0.696l-18.362,114.717l-20.104,0.229l-6.767,-12.154c-12.125,15.808 -33.829,15.517 -51.508,9.104c-26.517,-15.617 1.392,-86.433 0.121,-111.954l23.667,9.863c0.192,29.337 -29.733,76.308 9.533,87.096c39.387,-13.642 29.121,-64.075 39.971,-96.204" style="fill:#20509e;fill-rule:nonzero;"/><path d="M3424.163,3868.143c-87.975,-51.508 -112.492,101.963 -15.025,54.613l8.988,14.879c-141.092,75.267 -116.104,-152.971 9.508,-87.725l-3.471,18.233Z" style="fill:#20509e;fill-rule:nonzero;"/><path d="M2801.738,3922.613c22.158,24.296 -76.758,55.338 -89.287,1.717c-13.808,-59.096 41.796,-108.204 95.275,-77.258c16.213,37.721 -22.796,9.379 -33.104,9.333c-55.933,-0.262 -58.796,113.404 27.117,66.208" style="fill:#20509e;fill-rule:nonzero;"/><path d="M3484.588,3807.709l-6.054,30.175l20.583,-0.071l3.579,15.175c-5.733,12.504 -26.004,6.667 -29.412,9.862c-3.312,3.104 -9.842,68.854 -6.854,71.867l24.162,8.95c-8.367,12.975 -39.029,13.05 -45.642,3.483c-12.812,-22.742 6.883,-63.513 3.621,-81.062c-0.796,-4.271 -10.962,-3.671 -12.254,-7.871c-9.021,-29.3 33.1,-12.292 18.046,-50.488l30.225,-0.021Z" style="fill:#20509e;fill-rule:nonzero;"/><path d="M4493.065,3952.103c-10.179,0.221 -25.154,7.267 -23.146,-7.9c4.883,-36.9 13.262,-113.608 24.146,-145.3c8.767,-25.537 23.571,-17.279 24.117,5.425c0.95,39.662 -22.717,105.225 -25.117,147.775" style="fill:#20509e;fill-rule:nonzero;"/><path d="M3960.498,3839.906c1.871,1.042 1.175,11.092 4.387,10.142c8.996,-2.658 20.733,-17.454 36.333,-12.192c14.433,28.708 -23.912,18.488 -35.971,36.579c-10.608,15.908 -12.679,75.212 -15.746,77.992l-23.737,0.396l12.079,-114.942c7.733,0.438 15.329,-2.062 22.654,2.025" style="fill:#20509e;fill-rule:nonzero;"/><path d="M4425.9,3839.859c1.296,0.729 0.946,10.429 4.45,10.375c10.058,-0.146 16.204,-14.917 36.175,-12.362c14.396,28.704 -23.921,18.467 -35.983,36.562c-10.604,15.908 -12.683,75.225 -15.738,77.996l-23.746,0.371l13,-104.871l8.171,-9.967c5.154,-0.35 8.771,-0.867 13.671,1.896" style="fill:#20509e;fill-rule:nonzero;"/></g></svg>